<svg width="190" height="193" viewBox="0 0 190 193" fill="none" xmlns="http://www.w3.org/2000/svg">
<path d="M169.266 98.875C169.266 97.625 169.235 96.3906 169.172 95.1718L189.75 87.9531C189.547 80.1406 188.188 72.4062 185.704 65L161.75 66.3125C159.245 61.1977 156.157 56.3898 152.547 51.9843L165.157 30.7343C159.982 24.8792 153.963 19.8288 147.297 15.75L128.969 32.9062C123.058 29.858 116.761 27.6242 110.25 26.2656L106.219 1.73434C98.4849 0.578095 90.6411 0.578095 82.9067 1.73434L79.9536 26.2656C73.5474 27.5937 67.4692 29.7656 61.7817 32.625L42.938 16.4531C36.2763 20.5368 30.2576 25.5866 25.0786 31.4375L38.1255 51.4375C34.9207 55.2874 32.1098 59.4488 29.7349 63.8593L4.53174 63.5468C2.04736 70.9531 0.687988 78.7031 0.469238 86.5156L21.2192 92.8125C21.063 94.8125 20.9536 96.8437 20.9536 98.8906C20.9536 103.359 21.3755 107.734 22.1255 112L3.20361 127.484C6.06299 134.75 10.0005 141.562 14.8599 147.672L33.2817 139.812C38.2031 147.229 44.4163 153.702 51.6255 158.922L46.8599 184.187C53.7349 187.922 61.1099 190.609 68.7661 192.156L79.313 171.328C84.4067 172.437 89.688 173.031 95.1099 173.031C100.172 173.031 105.11 172.516 109.891 171.562L121.469 192.172C129.125 190.609 136.516 187.922 143.375 184.203L137.641 159.625C145.266 154.281 151.829 147.547 156.969 139.781L175.36 146.719C180.219 140.609 184.157 133.797 187.016 126.531L168.032 112.297C168.829 107.937 169.266 103.453 169.266 98.875ZM95.1099 145.937C69.5786 145.937 48.8911 125.25 48.8911 99.7187C48.8911 74.1875 69.5786 53.5 95.1099 53.5C120.641 53.5 141.329 74.1875 141.329 99.7187C141.329 125.25 120.641 145.937 95.1099 145.937Z" fill="#78A3AD"/>
</svg>
